<svg version="1.2" xmlns="http://www.w3.org/2000/svg" viewBox="0 0 150 150" width="150" height="150">
	<title>iconmonstr-instagram-14</title>
	<style>
		.s0 { fill: #9b82aa } 
	</style>
	<path class="s0" d="m75 0c-41.4 0-75 33.6-75 75 0 41.4 33.6 75 75 75 41.4 0 75-33.6 75-75 0-41.4-33.6-75-75-75zm43.5 93c-0.7 15.9-9.6 24.8-25.5 25.5-4.6 0.2-6.1 0.3-18 0.3-11.9 0-13.4-0.1-18-0.3-15.9-0.7-24.8-9.6-25.5-25.5-0.2-4.6-0.3-6.1-0.3-18 0-11.9 0.1-13.4 0.3-18 0.7-15.9 9.6-24.8 25.5-25.5 4.6-0.2 6.1-0.2 18-0.2 11.9 0 13.4 0 18 0.2 15.9 0.8 24.8 9.6 25.5 25.5 0.2 4.6 0.3 6.1 0.3 18 0 11.9-0.1 13.4-0.3 18zm-25.8-53.6c-4.6-0.2-6-0.3-17.7-0.3-11.7 0-13.1 0.1-17.7 0.3-11.8 0.5-17.4 6.1-17.9 17.9-0.2 4.6-0.3 6-0.3 17.7 0 11.7 0.1 13.1 0.3 17.7 0.5 11.7 6 17.4 17.9 17.9 4.6 0.2 6 0.3 17.7 0.3 11.7 0 13.1-0.1 17.7-0.3 11.9-0.5 17.4-6.2 17.9-17.9 0.2-4.6 0.3-6 0.3-17.7 0-11.7-0.1-13.1-0.3-17.7-0.5-11.7-6.1-17.4-17.9-17.9zm-17.7 58.1c-12.4 0-22.5-10.1-22.5-22.5 0-12.4 10.1-22.5 22.5-22.5 12.4 0 22.5 10.1 22.5 22.5 0 12.4-10.1 22.5-22.5 22.5zm14.6-22.5c0 8.1-6.6 14.6-14.6 14.6-8 0-14.6-6.5-14.6-14.6 0-8.1 6.6-14.6 14.6-14.6 8 0 14.6 6.5 14.6 14.6zm8.8-18.1c-2.9 0-5.3-2.4-5.3-5.3 0-2.9 2.4-5.2 5.3-5.2 2.9 0 5.2 2.4 5.2 5.2 0 2.9-2.3 5.3-5.2 5.3z"/>
</svg>