<svg version="1.2" xmlns="http://www.w3.org/2000/svg" viewBox="0 0 150 150" width="150" height="150">
	<title>iconmonstr-youtube-9</title>
	<style>
		.s0 { fill: #9b82aa } 
	</style>
	<path class="s0" d="m75 0c-41.4 0-75 33.6-75 75 0 41.4 33.6 75 75 75 41.4 0 75-33.6 75-75 0-41.4-33.6-75-75-75zm27.8 105.6c-13.2 0.9-42.4 0.9-55.6 0-14.2-1-15.8-8-15.9-30.6 0.1-22.7 1.7-29.6 15.9-30.6 13.2-0.9 42.4-0.9 55.6 0 14.2 1 15.8 8 15.9 30.6-0.1 22.7-1.7 29.6-15.9 30.6zm-40.3-45.2l30.7 14.6-30.7 14.6z"/>
</svg>